<?xml version="1.0" encoding="UTF-8"?>
<!DOCTYPE svg PUBLIC "-//W3C//DTD SVG 1.1//EN" "http://www.w3.org/Graphics/SVG/1.1/DTD/svg11.dtd">
<svg version="1.1" xmlns="http://www.w3.org/2000/svg" xmlns:xlink="http://www.w3.org/1999/xlink" x="0" y="0" width="351.379" height="523.599" viewBox="0, 0, 351.379, 523.599">
  <g id="Layer_1">
    <path d="M338.097,156.472 C349.917,110.031 335.557,92.1 328.689,86.481 C321.249,80.394 307.25,80.12 293.712,79.857 C290.243,79.789 285.563,79.698 282.327,79.414 C282.909,68.138 283.856,42.829 258.337,27.871 C244.709,19.881 229.04,17.903 214.214,22.302 C209.038,23.838 204.221,26.096 200.188,28.776 C191.374,9.79 180.88,0.522 168.294,0.522 C163.917,0.522 152.598,1.741 141.94,3.71 C121.28,7.528 116.395,11.622 114.19,15.478 C113.158,17.284 112.114,19.42 111.089,21.57 C100.825,8.253 91.398,1.193 82.989,0.546 C63.718,-0.936 39.216,-0.116 31.939,12.212 C29.065,17.079 8.938,57.629 5.83,68.711 C4.105,74.037 4.476,81.835 5.187,92.216 C5.417,95.563 5.729,100.1 5.586,101.623 C-2.481,127.819 -0.051,162.379 2.096,192.887 C3.585,214.05 4.993,234.038 2.143,244.665 C-2.763,262.943 20.3,284.99 58.867,319.127 C71.729,330.513 83.878,341.266 93.004,350.897 C105.374,363.951 106.334,369.002 106.334,370.24 C106.334,380.736 103.197,402.736 100.164,424.011 C91.692,483.412 91.341,494.85 97.808,500.51 C104.239,506.137 146.495,514.441 173.028,518.283 C192.39,521.084 215.99,523.599 238.357,523.599 C254.962,523.599 270.888,522.212 283.887,518.531 C301.077,513.661 311.669,505.128 315.365,493.168 C322.774,469.201 320.599,441.54 318.496,414.788 C316.079,384.049 313.797,355.013 326.169,336.013 C338.847,316.541 348.271,280.861 350.76,242.897 C351.954,224.685 352.969,181.065 338.097,156.472" fill="#000000" id="path27313"/>
    <path d="M316.106,320.95 C312.043,327.049 306.735,332.595 300.365,336.94 C293.377,341.702 285.023,345.041 275.93,345.592 C284.771,347.77 294.573,347.158 303.812,344.315 C304.142,344.213 304.466,344.09 304.794,343.983 C298.275,365.304 300.296,391.015 302.266,416.064 C304.247,441.289 306.298,467.372 299.811,488.361 C298.249,493.411 293.784,497.402 286.16,500.563 C267.123,508.458 230.802,509.444 183.886,503.341 C182.812,503.201 181.744,503.059 180.682,502.915 L185.932,403.028 L170.796,501.493 C140.759,496.925 117.148,491.078 109.684,488.454 C108.771,478.98 113.246,447.599 116.281,426.309 C119.539,403.467 122.615,381.891 122.615,370.24 C122.615,370.034 122.598,369.825 122.59,369.618 C124.049,370.062 125.516,370.48 126.998,370.836 C136.292,373.095 145.963,373.525 155.199,372.029 C164.438,370.548 173.212,367.191 180.889,362.373 C188.581,357.565 195.206,351.396 200.63,344.46 C194.203,350.486 186.869,355.402 178.999,358.767 C171.14,362.15 162.738,363.888 154.482,363.919 C146.218,363.961 138.12,362.28 130.695,359.199 C123.691,356.304 117.299,352.182 111.593,347.282 C102.482,336.241 88.07,323.233 69.658,306.935 C55.622,294.511 41.107,281.665 30.933,270.444 C17.087,255.177 17.62,249.805 17.867,248.883 C21.425,235.619 19.995,215.287 18.337,191.744 C16.809,170.006 15.133,146.114 17.377,125.705 C18.81,127.483 20.42,129.122 22.238,130.513 C25.377,132.971 29.121,134.479 32.871,135.26 C36.639,136.044 40.453,136.146 44.206,135.944 C40.454,135.697 36.718,135.131 33.228,133.951 C29.746,132.773 26.52,130.971 24.002,128.451 C21.499,125.999 19.611,123.009 18.152,119.806 C18.902,114.978 19.905,110.387 21.235,106.128 C21.464,105.396 21.626,104.61 21.731,103.735 C23.247,101.886 24.873,100.234 26.594,98.738 C28.28,98.85 29.978,99.08 31.658,99.409 C35.69,100.203 39.647,101.565 43.304,103.534 C46.949,105.518 50.276,108.143 52.995,111.368 C54.338,112.99 55.527,114.751 56.56,116.616 C57.574,118.49 58.382,120.478 59.074,122.517 C58.602,120.42 58.002,118.335 57.171,116.324 C56.325,114.322 55.297,112.384 54.08,110.553 C51.616,106.91 48.396,103.75 44.726,101.223 C41.044,98.708 36.953,96.791 32.659,95.463 C32.254,95.339 31.845,95.224 31.437,95.11 C44.443,86.755 62.044,85.192 82.99,83.341 C90.252,82.699 97.823,82.028 105.649,81.038 C105.756,89.251 108.4,96.941 113.137,102.367 C117.416,107.268 123.07,109.967 129.063,109.967 C139.084,109.967 161.464,102.143 173.938,91.562 C173.655,95.555 172.761,100.183 170.966,105.526 C164.641,124.367 148.646,139.625 127.084,147.389 L128.737,151.982 L127.084,147.389 C123.066,149.287 118.604,150.784 114.031,152.01 C109.45,153.234 104.731,154.192 99.961,154.954 C90.411,156.462 80.649,157.237 70.834,157.228 C80.488,159.038 90.343,160.091 100.311,160.369 C103.936,160.464 107.579,160.446 111.242,160.283 C112.584,162.805 113.768,165.277 114.661,167.724 C115.801,170.843 116.454,173.891 116.331,176.644 C116.201,179.385 115.21,181.854 113.241,184.163 C112.691,184.696 112.228,185.309 111.609,185.827 L109.672,187.36 C108.974,187.835 108.204,188.253 107.465,188.714 C107.073,188.944 106.762,189.161 106.298,189.406 L104.914,190.139 C97.585,194.131 90.874,199.167 85.441,205.378 C82.749,208.483 80.348,211.895 78.743,215.704 C77.957,217.605 77.361,219.608 77.192,221.659 C77.113,222.685 77.154,223.715 77.315,224.717 C77.506,225.717 77.833,226.677 78.294,227.554 C77.987,226.608 77.839,225.635 77.821,224.67 C77.835,223.701 77.962,222.749 78.197,221.823 C78.677,219.972 79.536,218.247 80.549,216.642 C82.606,213.432 85.336,210.696 88.283,208.292 C94.21,203.49 101.096,199.995 108.192,197.591 L109.529,197.155 C109.974,197.011 110.542,196.776 111.044,196.589 C112.079,196.179 113.127,195.81 114.159,195.344 L117.224,193.698 C117.532,193.517 117.834,193.316 118.135,193.107 C118.438,193.81 118.727,194.543 118.981,195.327 C119.946,198.16 120.679,201.288 121.25,204.481 C122.376,210.891 122.902,217.605 122.933,224.328 C122.966,231.058 122.524,237.84 121.376,244.52 C120.796,247.858 120.039,251.174 118.967,254.4 C117.887,257.617 116.513,260.771 114.476,263.583 C117.023,261.224 119.075,258.293 120.824,255.233 C122.57,252.159 124.022,248.918 125.296,245.613 C127.836,238.991 129.681,232.108 131.036,225.107 C132.392,218.096 133.258,210.965 133.428,203.607 C133.432,203.441 133.428,203.272 133.432,203.106 C190.568,193.409 245.007,290.096 211.71,339.712 C218.72,340.39 229.121,320.378 230.139,319.7 C230.498,319.46 234.669,323.115 240.267,327.506 L243.367,475.841 L250.526,334.971 C258.761,340.378 267.176,344.142 270.842,339.712 C260.666,335.303 250.151,322.414 240.978,308.167 C229.884,290.94 221.082,266.756 230.817,237.616 C240.553,208.476 274.912,220.317 287.802,214.89 C291.891,213.168 297.176,207.279 302.419,200.139 C312.513,190.397 320.982,177.091 325.996,168.311 C341.522,200.447 336.319,282.15 316.106,320.95" fill="#FFFFFF" id="path27564"/>
    <path d="M21.321,73.719 L21.487,73.174 C22.887,67.933 31.169,50.179 37.775,36.629 C38.451,35.892 39.22,35.167 40.044,34.497 C41.862,32.992 43.923,31.64 46.094,30.452 C50.447,28.081 55.243,26.324 60.198,25.327 C65.149,24.332 70.322,24.135 75.314,25.22 C80.298,26.275 85.052,28.791 88.696,32.637 C85.59,28.363 81.026,25.066 75.877,23.263 C70.73,21.426 65.145,20.909 59.674,21.29 C54.218,21.675 48.815,22.877 43.623,24.877 C44.693,22.783 45.504,21.254 45.926,20.538 C47.927,17.961 61.487,15.222 81.74,16.779 C84.746,17.01 93.221,23.393 104.259,40.03 L104.448,40.313 C104.989,41.124 105.688,42.227 106.484,43.367 C106.78,47.785 107.238,52.822 107.709,58.004 C108.068,61.961 108.435,66 108.714,69.665 C99.466,70.983 90.531,71.778 82.036,72.529 C58.172,74.638 36.981,76.518 21.289,88.997 C20.937,83.668 20.53,76.02 21.321,73.719" fill="#FFFFFF" id="path27562"/>
    <path d="M127.562,89.395 C127.314,85.189 125.573,81.373 122.672,78.335 C134.482,76.034 146.753,72.641 159.351,67.243 C160.23,66.888 163.794,67.392 167.374,70.762 C169.415,72.683 172.77,76.897 173.755,84.372 C164.503,94.802 139.777,104.54 129.063,104.54 C126.631,104.54 124.316,103.931 122.177,102.788 C125.814,99.512 127.866,94.578 127.562,89.395" fill="#FFFFFF" id="path27560"/>
    <path d="M119.419,78.956 C122.686,81.693 124.606,85.361 124.853,89.555 C125.125,94.17 123.181,98.539 119.795,101.25 C118.895,100.542 118.036,99.725 117.227,98.799 C113.2,94.187 111.021,87.489 111.073,80.298 C113.829,79.899 116.607,79.461 119.419,78.956" fill="#FFFFFF" id="path27558"/>
    <path d="M123.284,30.224 C124.492,28.366 125.69,26.312 127.875,24.375 C133.574,20.935 160.147,16.803 168.294,16.803 C171.656,16.803 174.845,19.162 177.733,22.68 C172.048,21.55 166.296,21.087 160.569,21.297 C154.682,21.514 148.784,22.393 143.234,24.373 C137.718,26.324 132.475,29.476 128.922,34.102 C132.83,29.772 138.165,27.14 143.641,25.668 C149.147,24.175 154.895,23.777 160.563,24.01 C166.234,24.242 171.882,25.16 177.265,26.72 C178.71,27.143 180.135,27.624 181.521,28.16 C184.357,32.919 186.76,38.415 188.564,43.09 L188.432,43.196 C193.907,51.823 191.276,138.268 183.034,163.454 C181.101,169.363 176.569,173.269 169.567,175.065 C156.91,178.31 139.642,173.731 130.498,167.13 C129.922,163.749 130.586,160.241 131.564,157.289 C155.856,148.301 173.948,130.743 181.256,108.981 C190.555,81.289 179.701,67.365 174.604,62.664 C168.507,57.042 160.663,54.872 155.075,57.266 C142.945,62.465 131.006,65.699 119.463,67.885 C119.189,64.409 118.852,60.679 118.519,57.021 C118.071,52.096 117.616,47.09 117.322,42.774 C118.07,39.99 119.54,35.982 123.284,30.224" fill="#FFFFFF" id="path27556"/>
    <path d="M204.519,46.675 C205.442,44.827 210.594,40.359 218.846,37.91 C226.243,35.715 237.673,34.628 250.104,41.916 C256.474,45.65 260.378,50.29 262.752,55.165 C262.168,54.767 261.578,54.376 260.984,53.993 C256.164,50.916 251.101,48.266 245.736,46.321 C240.395,44.404 234.703,43.057 228.952,43.434 C226.096,43.631 223.247,44.324 220.726,45.636 C218.197,46.936 216.057,48.847 214.423,51.065 C216.32,49.06 218.622,47.489 221.138,46.566 C223.651,45.631 226.335,45.327 228.977,45.469 C234.283,45.776 239.38,47.662 244.118,50.056 C248.869,52.472 253.297,55.54 257.38,58.921 C259.415,60.619 261.361,62.416 263.137,64.298 C264.03,65.233 264.865,66.201 265.624,67.167 C265.767,67.353 265.907,67.543 266.046,67.732 C266.412,71.902 266.212,75.82 266.043,79.043 C265.903,81.753 264.863,90.907 264.299,94.83 C256.306,119.133 239.686,164.824 232.87,175.858 C230.351,179.939 223.851,182.122 215.479,181.678 C205.468,181.156 195.337,177.09 190.984,172.158 C191.933,170.505 192.729,168.731 193.351,166.83 C198.126,152.237 200.894,120.068 201.813,96.954 C202.34,83.698 202.544,68.554 201.618,56.542 z" fill="#FFFFFF" id="path27554"/>
    <path d="M293.395,96.135 C300.503,96.274 315.299,96.562 318.378,99.082 C321.023,101.246 323.316,104.971 324.759,110.356 C322.224,108.662 319.581,107.129 316.78,105.879 C312.167,103.835 307.015,102.43 301.88,103.072 C299.337,103.39 296.878,104.269 294.78,105.628 C292.673,106.98 290.935,108.766 289.497,110.717 C291.194,108.981 293.13,107.5 295.271,106.52 C297.406,105.531 299.719,105.068 302.005,105.103 C306.606,105.178 310.976,107.049 314.877,109.478 C318.799,111.931 322.331,115.034 325.515,118.404 C325.744,118.649 325.958,118.907 326.185,119.155 C326.852,128.191 325.687,140.11 321.604,155.153 L320.928,154.818 C311.9,173.034 292.332,201.778 278.053,201.778 L277.845,201.776 C258.424,201.395 247.331,183.196 246.462,172.972 C254.898,154.482 268.76,116.828 275.555,95.411 C276.731,95.308 277.939,95.288 279.156,95.44 C283.107,95.934 288.104,96.032 293.395,96.135" fill="#FFFFFF" id="path27552"/>
  </g>
</svg>
