<?xml version="1.0" standalone="no"?>
<!DOCTYPE svg PUBLIC "-//W3C//DTD SVG 20010904//EN"
 "http://www.w3.org/TR/2001/REC-SVG-20010904/DTD/svg10.dtd">
<svg version="1.0" xmlns="http://www.w3.org/2000/svg"
 width="128.000000pt" height="128.000000pt" viewBox="0 0 128.000000 128.000000"
 preserveAspectRatio="xMidYMid meet">

<g transform="translate(0.000000,128.000000) scale(0.100000,-0.100000)"
fill="#000000" stroke="none">
<path d="M759 1248 c3 -19 6 -26 9 -15 4 21 19 22 39 1 14 -13 14 -17 2 -25
-8 -5 -9 -9 -3 -9 14 0 38 -55 30 -68 -3 -5 -18 -7 -33 -5 l-28 4 30 -15 c40
-20 65 -41 65 -55 0 -6 7 -11 15 -11 8 0 12 -6 10 -12 -3 -7 13 -23 36 -36 28
-16 39 -28 35 -39 -3 -8 -6 -19 -6 -24 0 -5 -36 -9 -81 -9 -54 0 -78 -3 -74
-11 9 -13 -25 -38 -42 -32 -7 3 -13 -2 -13 -10 0 -8 -6 -17 -13 -20 -8 -3 -21
-21 -31 -41 -14 -30 -15 -45 -6 -98 6 -35 12 -70 13 -79 2 -10 8 -23 14 -30
16 -21 43 -76 38 -80 -2 -3 -6 -17 -9 -32 -2 -14 -11 -36 -20 -48 -8 -12 -12
-28 -9 -35 4 -11 -2 -13 -28 -8 -42 8 -69 22 -69 34 0 6 -9 10 -21 10 -13 0
-18 -4 -14 -12 4 -7 0 -4 -9 6 -13 17 -16 17 -21 3 -4 -8 -17 -18 -31 -21 -13
-4 -24 -11 -24 -17 0 -6 -4 -8 -8 -5 -5 3 -20 -5 -32 -17 -19 -16 -22 -18 -17
-4 4 10 2 17 -6 17 -8 0 -13 -16 -14 -42 0 -24 1 -37 4 -30 3 6 9 9 14 6 6 -3
19 2 29 11 17 15 21 16 41 1 16 -10 27 -12 40 -5 12 6 20 5 24 -1 4 -6 10 -8
15 -5 5 3 25 -4 45 -16 30 -18 46 -21 93 -16 57 7 57 7 23 -8 -18 -8 -37 -12
-42 -9 -5 3 -9 -2 -9 -10 0 -14 -17 -16 -106 -16 -58 0 -114 4 -124 10 -23 12
-50 3 -50 -17 0 -9 -8 -22 -17 -29 -16 -12 -15 -13 10 -14 15 0 27 3 27 8 0 4
4 13 9 20 6 11 16 10 50 -4 32 -12 45 -14 54 -5 15 15 31 14 80 -8 23 -10 50
-21 60 -24 24 -9 23 -40 -2 -32 -24 7 -71 -14 -71 -32 0 -8 -4 -12 -9 -9 -12
8 -21 -18 -11 -34 4 -7 6 -25 4 -39 -4 -25 -2 -27 33 -29 20 -2 42 -7 49 -13
7 -5 82 -8 184 -7 l173 3 28 50 c15 28 38 88 50 135 20 73 49 150 49 127 0 -4
13 -1 29 7 25 13 30 24 41 83 17 97 23 342 9 360 -10 11 -15 11 -29 -2 -16
-15 -18 -14 -24 17 -3 18 -10 74 -15 123 -5 50 -19 122 -32 160 -22 70 -43
109 -33 64 5 -22 4 -23 -9 -6 -8 10 -21 16 -28 15 -10 -2 -14 9 -15 38 0 23
-4 49 -7 58 -4 10 -3 15 3 11 6 -3 10 -13 10 -21 0 -8 5 -14 11 -14 6 0 3 14
-8 33 l-19 32 -155 3 -156 2 6 -32z m237 -253 c18 -15 18 -15 -5 -13 -14 2
-26 9 -29 16 -5 17 10 15 34 -3z m-46 -279 c47 -15 36 -21 -19 -10 -17 4 -31
10 -31 15 0 11 -4 11 50 -5z m18 -179 c18 0 72 -55 72 -73 0 -8 4 -14 8 -14
10 0 32 -68 32 -96 -1 -16 -3 -15 -14 6 -8 14 -13 27 -11 30 1 3 -6 14 -16 24
-19 19 -19 19 -13 -12 4 -18 4 -32 1 -32 -3 0 -25 32 -48 70 -23 39 -45 73
-50 76 -5 3 -9 12 -9 21 0 11 5 13 18 8 9 -4 23 -8 30 -8z m-129 -36 c7 -5 10
-14 7 -20 -11 -17 -23 -13 -29 9 -6 22 0 25 22 11z m-303 -109 c-17 -16 -18
-16 -5 5 7 12 15 20 18 17 3 -2 -3 -12 -13 -22z m88 -16 c-6 -15 -34 -31 -34
-19 0 5 30 32 37 33 1 0 0 -6 -3 -14z m173 -102 c-3 -3 -12 -4 -19 -1 -8 3 -5
6 6 6 11 1 17 -2 13 -5z m-134 -184 c3 -11 1 -20 -4 -20 -5 0 -9 9 -9 20 0 11
2 20 4 20 2 0 6 -9 9 -20z m-23 -15 c0 -8 -4 -15 -8 -15 -5 0 -9 7 -9 15 0 8
4 15 9 15 4 0 8 -7 8 -15z"/>
<path d="M1100 1180 c6 -11 13 -20 16 -20 2 0 0 9 -6 20 -6 11 -13 20 -16 20
-2 0 0 -9 6 -20z"/>
<path d="M445 920 c-120 -30 -127 -34 -104 -57 7 -7 4 -16 -13 -29 -13 -11
-28 -26 -33 -34 -5 -8 6 -3 24 13 18 15 40 27 49 27 11 0 5 -7 -15 -20 -17
-10 -37 -28 -43 -39 -14 -28 -7 -26 27 5 25 24 28 24 32 8 6 -35 23 -46 63
-41 30 4 38 2 38 -10 0 -12 3 -13 14 -4 7 6 22 8 31 4 13 -4 16 -3 11 5 -6 11
12 17 37 13 4 0 7 3 7 9 0 6 -6 10 -13 10 -7 0 -18 9 -25 20 -13 21 -12 21 15
4 21 -12 19 -7 -11 20 -22 20 -51 36 -65 37 -17 1 -12 4 17 10 57 11 89 42 60
60 -16 11 -17 11 -103 -11z m-22 -77 c-7 -2 -19 -2 -25 0 -7 3 -2 5 12 5 14 0
19 -2 13 -5z m82 -13 c3 -6 -1 -7 -9 -4 -18 7 -21 14 -7 14 6 0 13 -4 16 -10z
m-93 -35 c-5 -26 -32 -35 -32 -10 0 10 20 30 36 35 1 0 -1 -11 -4 -25z m35 18
c-4 -3 -2 -12 4 -19 9 -11 7 -15 -5 -20 -9 -4 -18 -5 -20 -3 -6 6 13 49 20 49
4 0 4 -3 1 -7z m61 -36 c-13 -4 -25 -9 -28 -10 -3 -1 -5 10 -5 25 -1 27 -1 27
27 10 l28 -16 -22 -9z"/>
<path d="M440 740 c-9 -6 -10 -10 -3 -10 6 0 15 5 18 10 8 12 4 12 -15 0z"/>
<path d="M127 703 c-4 -3 -7 -11 -7 -17 0 -6 5 -5 12 2 6 6 9 14 7 17 -3 3 -9
2 -12 -2z"/>
<path d="M132 650 c0 -14 2 -19 5 -12 2 6 2 18 0 25 -3 6 -5 1 -5 -13z"/>
<path d="M80 619 c0 -5 5 -7 10 -4 6 3 10 8 10 11 0 2 -4 4 -10 4 -5 0 -10 -5
-10 -11z"/>
<path d="M147 565 c4 -11 9 -63 10 -115 6 -175 17 -255 34 -245 7 5 6 12 -2
21 -9 11 -8 19 7 37 16 18 16 19 2 8 -16 -12 -18 -10 -19 20 -4 153 -11 235
-24 262 -9 18 -12 23 -8 12z"/>
<path d="M57 533 c-12 -11 -8 -23 8 -23 8 0 15 7 15 15 0 16 -12 20 -23 8z"/>
<path d="M90 491 c0 -5 5 -13 10 -16 6 -3 10 -2 10 4 0 5 -4 13 -10 16 -5 3
-10 2 -10 -4z"/>
<path d="M576 481 c-3 -4 6 -6 19 -3 14 2 25 6 25 8 0 8 -39 4 -44 -5z"/>
<path d="M388 359 c-25 -14 -23 -38 2 -32 11 3 17 9 14 14 -3 5 0 9 5 9 6 0
11 5 11 10 0 13 -10 12 -32 -1z"/>
<path d="M285 210 c-3 -5 -1 -10 4 -10 6 0 11 5 11 10 0 6 -2 10 -4 10 -3 0
-8 -4 -11 -10z"/>
<path d="M190 179 c0 -17 44 -95 76 -134 25 -33 39 -41 68 -43 20 -2 36 2 36
8 0 9 -29 15 -52 11 -13 -2 -9 17 5 23 6 3 0 4 -15 1 -16 -3 -28 -4 -28 -2 0
9 41 87 46 87 4 0 3 -7 0 -16 -3 -9 -2 -12 5 -9 6 4 8 13 5 20 -2 7 1 18 7 24
7 7 1 7 -20 -1 -17 -6 -29 -17 -26 -24 2 -7 -8 -13 -26 -16 -17 -3 -31 -1 -31
4 0 4 9 8 20 8 18 0 19 1 4 19 -10 11 -24 17 -37 13 -16 -4 -19 -1 -15 15 3
12 0 20 -8 20 -8 0 -14 -4 -14 -8z m83 -96 c-7 -2 -19 -2 -25 0 -7 3 -2 5 12
5 14 0 19 -2 13 -5z"/>
<path d="M290 180 c0 -5 5 -10 11 -10 5 0 7 5 4 10 -3 6 -8 10 -11 10 -2 0 -4
-4 -4 -10z"/>
<path d="M343 59 c1 -10 5 -15 9 -13 4 3 8 0 8 -5 0 -6 11 -10 24 -9 14 1 24
7 23 13 -1 5 5 9 13 7 12 -3 13 -1 2 10 -11 11 -14 10 -21 -1 -5 -8 -16 -11
-26 -8 -9 4 -14 11 -11 15 3 5 -1 9 -9 9 -7 0 -13 -8 -12 -18z"/>
<path d="M648 3 c6 -2 18 -2 25 0 6 3 1 5 -13 5 -14 0 -19 -2 -12 -5z"/>
</g>
</svg>
